<svg width="30" height="30" viewBox="0 0 30 30" fill="none" xmlns="http://www.w3.org/2000/svg">
<g clip-path="url(#clip0)">
<path d="M24.7305 8.46172H5.26948C5.05894 8.44383 4.85031 8.51339 4.69255 8.654C4.53744 8.803 4.46559 9.01869 4.50027 9.23093L6.50019 26.6535C6.73473 28.5744 8.37268 30.0139 10.3077 29.9996H19.9998C21.9893 30.0279 23.6652 28.5196 23.8458 26.5382L25.4996 9.154C25.5099 8.96753 25.4399 8.78555 25.3073 8.654C25.1497 8.51339 24.941 8.44383 24.7305 8.46172ZM22.3075 26.4612C22.1866 27.6324 21.1763 28.508 19.9999 28.4611H10.3078C9.15249 28.508 8.15942 27.6496 8.03861 26.4997L6.11562 10.0001H23.8843L22.3075 26.4612Z" fill="black"/>
<path d="M27.5381 3.46187H19.6152V2.23108C19.6579 1.04234 18.7289 0.0441042 17.5401 0.00140697C17.5011 8.26794e-06 17.462 -0.000359811 17.423 0.000376347H12.577C11.3876 -0.0216348 10.4057 0.924623 10.3837 2.11396C10.383 2.15298 10.3833 2.19207 10.3847 2.23108V3.46179H2.46184C2.037 3.46179 1.69263 3.80617 1.69263 4.23101C1.69263 4.65584 2.037 5.00022 2.46184 5.00022H27.5381C27.963 5.00022 28.3073 4.65584 28.3073 4.23101C28.3073 3.80617 27.9629 3.46187 27.5381 3.46187ZM18.0768 2.23108V3.46179H11.9231V2.23108C11.8797 1.894 12.1179 1.58562 12.455 1.54226C12.4954 1.53703 12.5362 1.53593 12.5769 1.5388H17.4229C17.7619 1.5148 18.0563 1.7701 18.0802 2.10918C18.0832 2.14981 18.082 2.19067 18.0768 2.23108Z" fill="black"/>
</g>
<defs>
<clipPath id="clip0">
<rect width="30" height="30" fill="white"/>
</clipPath>
</defs>
</svg>
